<svg width="24.000000" height="19.000000" viewBox="0 0 24 19" fill="none" xmlns="http://www.w3.org/2000/svg" xmlns:xlink="http://www.w3.org/1999/xlink">
	<desc>
			Created with Pixso.
	</desc>
	<defs/>
	<path id="Vector" d="M7.55 18.75C16.6 18.75 21.55 11.24 21.55 4.74C21.55 4.53 21.55 4.31 21.54 4.1C22.5 3.4 23.33 2.54 24 1.55C23.1 1.95 22.14 2.21 21.17 2.32C22.2 1.71 22.97 0.74 23.33 -0.4C22.37 0.17 21.31 0.58 20.21 0.8C19.47 0.01 18.48 -0.52 17.41 -0.69C16.35 -0.87 15.25 -0.68 14.29 -0.17C13.34 0.34 12.58 1.15 12.13 2.14C11.68 3.12 11.57 4.23 11.81 5.29C9.86 5.19 7.94 4.68 6.19 3.79C4.45 2.91 2.9 1.66 1.67 0.14C1.04 1.23 0.85 2.51 1.13 3.73C1.41 4.95 2.15 6.02 3.19 6.71C2.41 6.69 1.64 6.48 0.96 6.1L0.96 6.16C0.96 7.3 1.35 8.4 2.07 9.28C2.79 10.16 3.8 10.77 4.91 10.99C4.19 11.19 3.43 11.22 2.69 11.07C3 12.05 3.62 12.91 4.44 13.52C5.27 14.13 6.26 14.48 7.29 14.5C5.54 15.87 3.39 16.61 1.17 16.61C0.78 16.61 0.39 16.58 0 16.53C2.25 17.98 4.87 18.75 7.55 18.75Z" fill="#FFFFFF" fill-opacity="1.000000" fill-rule="nonzero"/>
</svg>
