<svg width="74.000000" height="74.000000" viewBox="0 0 74 74" fill="none" xmlns="http://www.w3.org/2000/svg" xmlns:xlink="http://www.w3.org/1999/xlink">
	<desc>
			Created with Pixso.
	</desc>
	<defs>
		<clipPath id="clip4_2">
			<rect id="Icon" width="34.000000" height="34.000000" transform="translate(20.000000 20.000000)" fill="white" fill-opacity="0"/>
		</clipPath>
	</defs>
	<rect id="Icon Container" rx="36.500000" width="73.000000" height="73.000000" transform="translate(0.500000 0.500000)" fill="#141414" fill-opacity="1.000000"/>
	<g clip-path="url(#clip4_2)">
		<path id="Union" d="M36.57 23.97C36.84 23.85 37.15 23.85 37.42 23.97C42.69 26.27 47.68 29.08 52.34 32.35C52.67 32.58 52.84 32.99 52.77 33.4C52.7 33.8 52.41 34.13 52.01 34.24C51.04 34.51 50.08 34.8 49.12 35.11C45.26 36.35 41.53 37.92 37.98 39.78L37.98 39.79C37.82 39.87 37.66 39.96 37.5 40.04C37.18 40.21 36.81 40.21 36.5 40.04C36.33 39.96 36.17 39.87 36.01 39.78C34.25 38.86 32.46 38.02 30.62 37.24L30.62 36.92C30.62 36.74 30.72 36.57 30.86 36.48C33 35.19 35.19 34 37.46 32.91C37.98 32.66 38.21 32.03 37.95 31.5C37.7 30.97 37.06 30.74 36.54 31C34.21 32.11 31.95 33.34 29.76 34.67C29.12 35.06 28.69 35.69 28.55 36.41C27.33 35.94 26.11 35.51 24.87 35.11C23.91 34.8 22.95 34.51 21.98 34.24C21.58 34.13 21.29 33.8 21.22 33.4C21.15 32.99 21.32 32.58 21.65 32.35C26.31 29.08 31.3 26.27 36.57 23.97ZM38.5 41.92C41.95 40.07 45.58 38.51 49.36 37.27C49.55 39.27 49.67 41.29 49.72 43.34C49.73 43.77 49.47 44.17 49.07 44.34C45.03 46.03 41.18 48.09 37.58 50.49C37.23 50.73 36.76 50.73 36.41 50.49C34.24 49.05 31.98 47.72 29.64 46.53C29.19 47.45 28.58 48.31 27.82 49.07C27.4 49.48 26.73 49.48 26.32 49.07C25.9 48.65 25.9 47.98 26.32 47.57C26.91 46.97 27.38 46.3 27.73 45.59C26.81 45.15 25.87 44.74 24.92 44.34C24.52 44.17 24.26 43.77 24.27 43.34C24.32 41.29 24.44 39.27 24.63 37.26C25.94 37.69 27.23 38.16 28.5 38.67L28.5 40.47C27.86 40.83 27.43 41.52 27.43 42.31C27.43 43.01 27.77 43.63 28.3 44.02C28.17 44.56 27.98 45.09 27.73 45.59C28.37 45.89 29.01 46.21 29.64 46.53C30 45.8 30.26 45.03 30.42 44.25C31.16 43.92 31.68 43.17 31.68 42.31C31.68 41.52 31.26 40.83 30.62 40.47L30.62 39.55C32.28 40.28 33.9 41.07 35.49 41.92C36.43 42.42 37.56 42.42 38.5 41.92Z" fill="#A685FA" fill-opacity="1.000000" fill-rule="evenodd"/>
	</g>
	<rect id="Icon Container" rx="36.500000" width="73.000000" height="73.000000" transform="translate(0.500000 0.500000)" stroke="#703BF7" stroke-opacity="1.000000" stroke-width="1.000000"/>
</svg>
