<svg width="18.000000" height="18.000000" viewBox="0 0 18 18" fill="none" xmlns="http://www.w3.org/2000/svg" xmlns:xlink="http://www.w3.org/1999/xlink">
	<desc>
			Created with Pixso.
	</desc>
	<defs/>
	<path id="Vector" d="M4.5 0C5.74 0 6.75 1 6.75 2.25L6.75 4.5C6.75 5.74 5.74 6.75 4.5 6.75L2.25 6.75C1 6.75 0 5.74 0 4.5L0 2.25C0 1 1 0 2.25 0L4.5 0ZM4.5 9.75C5.74 9.75 6.75 10.75 6.75 12L6.75 14.25C6.75 15.49 5.74 16.5 4.5 16.5L2.25 16.5C1 16.5 0 15.49 0 14.25L0 12C0 10.75 1 9.75 2.25 9.75L4.5 9.75ZM14.25 0C15.49 0 16.5 1 16.5 2.25L16.5 4.5C16.5 5.74 15.49 6.75 14.25 6.75L12 6.75C10.75 6.75 9.75 5.74 9.75 4.5L9.75 2.25C9.75 1 10.75 0 12 0L14.25 0ZM14.25 9.75C15.49 9.75 16.5 10.75 16.5 12L16.5 14.25C16.5 15.49 15.49 16.5 14.25 16.5L12 16.5C10.75 16.5 9.75 15.49 9.75 14.25L9.75 12C9.75 10.75 10.75 9.75 12 9.75L14.25 9.75Z" stroke="#999999" stroke-opacity="1.000000" stroke-width="1.500000" stroke-linejoin="round"/>
</svg>
