<svg width="21.000000" height="14.000000" viewBox="0 0 21 14" fill="none" xmlns="http://www.w3.org/2000/svg" xmlns:xlink="http://www.w3.org/1999/xlink">
	<desc>
			Created with Pixso.
	</desc>
	<defs/>
	<path id="Vector (Stroke)" d="M-0.5 0.87C-0.5 0.39 -0.11 0 0.37 0L19.62 0C20.1 0 20.5 0.39 20.5 0.87C20.5 1.35 20.1 1.75 19.62 1.75L0.37 1.75C-0.11 1.75 -0.5 1.35 -0.5 0.87ZM-0.5 7C-0.5 6.51 -0.11 6.12 0.37 6.12L19.62 6.12C20.1 6.12 20.5 6.51 20.5 7C20.5 7.48 20.1 7.87 19.62 7.87L0.37 7.87C-0.11 7.87 -0.5 7.48 -0.5 7ZM9.12 13.12C9.12 12.64 9.51 12.25 10 12.25L19.62 12.25C20.1 12.25 20.5 12.64 20.5 13.12C20.5 13.6 20.1 14 19.62 14L10 14C9.51 14 9.12 13.6 9.12 13.12Z" fill="#FFFFFF" fill-opacity="1.000000" fill-rule="evenodd"/>
</svg>
