<svg width="94.000000" height="28.000000" viewBox="0 0 94 28" fill="none" xmlns="http://www.w3.org/2000/svg" xmlns:xlink="http://www.w3.org/1999/xlink">
	<desc>
			Created with Pixso.
	</desc>
	<defs/>
	<path id="Vector" d="M14 28C6.26 28 0 21.73 0 14L14 14L14 28Z" fill="#703BF7" fill-opacity="1.000000" fill-rule="evenodd"/>
	<path id="Vector" d="M0 0C7.73 0 14 6.26 14 14L0 14L0 0Z" fill="#703BF7" fill-opacity="1.000000" fill-rule="evenodd"/>
	<path id="Vector" d="M14 28C21.73 28 28 21.73 28 14L14 14L14 28Z" fill="#703BF7" fill-opacity="1.000000" fill-rule="evenodd"/>
	<path id="Vector" d="M28 14C28 6.26 21.73 0 14 0L14 14L28 14Z" fill="#703BF7" fill-opacity="1.000000" fill-rule="evenodd"/>
	<path id="Vector" d="M91.47 20.33L91.47 15.66C91.47 15.12 91.3 14.68 90.95 14.33C90.61 13.98 90.18 13.8 89.64 13.8C89.28 13.8 88.96 13.88 88.67 14.04C88.39 14.2 88.17 14.42 88.02 14.7C87.86 14.98 87.78 15.3 87.78 15.66L87.06 15.25C87.06 14.64 87.19 14.09 87.46 13.62C87.73 13.14 88.1 12.76 88.57 12.49C89.06 12.21 89.6 12.07 90.19 12.07C90.8 12.07 91.34 12.23 91.81 12.54C92.28 12.84 92.65 13.24 92.92 13.74C93.19 14.22 93.33 14.73 93.33 15.25L93.33 20.33L91.47 20.33ZM85.93 20.33L85.93 12.24L87.78 12.24L87.78 20.33L85.93 20.33Z" fill="#FFFFFF" fill-opacity="1.000000" fill-rule="evenodd"/>
	<path id="Vector" d="M81.99 20.33L81.99 12.24L83.85 12.24L83.85 20.33L81.99 20.33ZM82.92 10.75C82.6 10.75 82.34 10.65 82.13 10.43C81.92 10.22 81.82 9.95 81.82 9.64C81.82 9.33 81.92 9.06 82.13 8.85C82.34 8.63 82.6 8.53 82.92 8.53C83.24 8.53 83.51 8.63 83.71 8.85C83.91 9.06 84.01 9.33 84.01 9.64C84.01 9.95 83.91 10.22 83.71 10.43C83.51 10.65 83.24 10.75 82.92 10.75Z" fill="#FFFFFF" fill-opacity="1.000000" fill-rule="evenodd"/>
	<path id="Vector" d="M76.73 20.5C75.92 20.5 75.19 20.32 74.54 19.96C73.89 19.59 73.38 19.08 73 18.44C72.63 17.8 72.44 17.08 72.44 16.28C72.44 15.49 72.63 14.77 73 14.14C73.37 13.5 73.87 13 74.5 12.62C75.14 12.25 75.85 12.07 76.63 12.07C77.38 12.07 78.04 12.24 78.62 12.59C79.2 12.94 79.66 13.42 79.98 14.02C80.32 14.63 80.49 15.32 80.49 16.1C80.49 16.23 80.48 16.37 80.45 16.52C80.44 16.65 80.42 16.81 80.39 16.97L73.74 16.97L73.74 15.46L79.42 15.46L78.73 16.06C78.71 15.57 78.62 15.15 78.45 14.82C78.28 14.48 78.04 14.22 77.72 14.04C77.42 13.86 77.04 13.77 76.59 13.77C76.12 13.77 75.71 13.87 75.36 14.07C75.01 14.28 74.74 14.56 74.55 14.93C74.36 15.29 74.27 15.73 74.27 16.23C74.27 16.74 74.37 17.18 74.57 17.56C74.77 17.95 75.06 18.25 75.43 18.46C75.8 18.66 76.23 18.76 76.71 18.76C77.13 18.76 77.51 18.69 77.86 18.54C78.22 18.4 78.52 18.18 78.77 17.9L79.95 19.1C79.55 19.56 79.08 19.91 78.51 20.14C77.95 20.38 77.36 20.5 76.73 20.5Z" fill="#FFFFFF" fill-opacity="1.000000" fill-rule="evenodd"/>
	<path id="Vector" d="M68.06 20.33L68.06 8.86L69.91 8.86L69.91 20.33L68.06 20.33ZM66.12 13.92L66.12 12.24L71.85 12.24L71.85 13.92L66.12 13.92Z" fill="#FFFFFF" fill-opacity="1.000000" fill-rule="evenodd"/>
	<path id="Vector" d="M60.43 20.5C59.7 20.5 59.04 20.31 58.44 19.94C57.86 19.57 57.39 19.07 57.04 18.44C56.71 17.8 56.54 17.09 56.54 16.3C56.54 15.5 56.71 14.79 57.04 14.16C57.39 13.52 57.86 13.01 58.44 12.64C59.04 12.26 59.7 12.07 60.43 12.07C61.05 12.07 61.6 12.2 62.07 12.47C62.55 12.73 62.94 13.09 63.22 13.55C63.5 14.01 63.64 14.54 63.64 15.12L63.64 17.45C63.64 18.03 63.5 18.55 63.22 19.02C62.95 19.48 62.57 19.84 62.09 20.11C61.6 20.37 61.05 20.5 60.43 20.5ZM60.74 18.75C61.42 18.75 61.97 18.51 62.39 18.05C62.82 17.59 63.03 17 63.03 16.28C63.03 15.8 62.94 15.37 62.74 15C62.55 14.63 62.28 14.34 61.93 14.14C61.6 13.93 61.2 13.82 60.74 13.82C60.29 13.82 59.89 13.93 59.54 14.14C59.2 14.34 58.93 14.63 58.73 15C58.54 15.37 58.44 15.8 58.44 16.28C58.44 16.77 58.54 17.19 58.73 17.56C58.93 17.94 59.2 18.23 59.54 18.44C59.89 18.64 60.29 18.75 60.74 18.75ZM62.91 20.33L62.91 18.16L63.23 16.18L62.91 14.23L62.91 12.24L64.77 12.24L64.77 20.33L62.91 20.33Z" fill="#FFFFFF" fill-opacity="1.000000" fill-rule="evenodd"/>
	<path id="Vector" d="M52.13 20.33L52.13 8.86L53.99 8.86L53.99 20.33L52.13 20.33ZM50.19 13.92L50.19 12.24L55.93 12.24L55.93 13.92L50.19 13.92Z" fill="#FFFFFF" fill-opacity="1.000000" fill-rule="evenodd"/>
	<path id="Vector" d="M46.3 20.5C45.86 20.5 45.42 20.44 45.01 20.33C44.59 20.21 44.21 20.04 43.86 19.82C43.51 19.6 43.21 19.33 42.95 19.02L44.13 17.83C44.41 18.16 44.73 18.41 45.09 18.58C45.46 18.73 45.88 18.81 46.34 18.81C46.75 18.81 47.07 18.75 47.28 18.63C47.5 18.5 47.6 18.32 47.6 18.09C47.6 17.84 47.5 17.65 47.3 17.51C47.1 17.38 46.83 17.27 46.51 17.18C46.19 17.08 45.86 16.97 45.5 16.87C45.15 16.77 44.81 16.64 44.48 16.47C44.17 16.29 43.91 16.05 43.71 15.74C43.51 15.44 43.4 15.05 43.4 14.56C43.4 14.05 43.52 13.6 43.76 13.23C44.01 12.86 44.35 12.57 44.79 12.37C45.24 12.17 45.77 12.07 46.39 12.07C47.04 12.07 47.61 12.19 48.11 12.42C48.61 12.65 49.04 12.99 49.37 13.45L48.19 14.63C47.96 14.34 47.69 14.12 47.38 13.97C47.08 13.83 46.73 13.75 46.34 13.75C45.97 13.75 45.68 13.81 45.48 13.92C45.28 14.04 45.17 14.2 45.17 14.41C45.17 14.64 45.28 14.81 45.48 14.93C45.68 15.06 45.94 15.17 46.25 15.25C46.58 15.34 46.92 15.45 47.27 15.56C47.62 15.66 47.96 15.81 48.28 16C48.6 16.18 48.87 16.42 49.07 16.74C49.27 17.04 49.37 17.44 49.37 17.94C49.37 18.72 49.1 19.35 48.55 19.81C48 20.27 47.25 20.5 46.3 20.5Z" fill="#FFFFFF" fill-opacity="1.000000" fill-rule="evenodd"/>
	<path id="Vector" d="M33.96 20.33L33.96 8.53L35.9 8.53L35.9 20.33L33.96 20.33ZM35.3 20.33L35.3 18.56L41.91 18.56L41.91 20.33L35.3 20.33ZM35.3 15.15L35.3 13.45L41.33 13.45L41.33 15.15L35.3 15.15ZM35.3 10.3L35.3 8.53L41.82 8.53L41.82 10.3L35.3 10.3Z" fill="#FFFFFF" fill-opacity="1.000000" fill-rule="evenodd"/>
</svg>
